<svg xmlns="http://www.w3.org/2000/svg" xmlns:xlink="http://www.w3.org/1999/xlink" width="200" height="128" viewBox="0 0 200 128">
    <defs>
        <path id="a" d="M.246 2.051L.244.021h.003z"/>
    </defs>
    <g fill="none" fill-rule="evenodd">
        <path fill="#E9E8E3" d="M172.247 127.983c-1.237 0-2.481-.047-3.74-.161-4.805-.436-9.676-.653-14.458-1.275-10.975-1.428-21.955-1.512-33.009-1.512-4.39 0-8.778-.04-13.166-.04-6.39 0-12.777.085-19.154.5-9.95.646-19.917.75-29.884.75-1.502 0-3.004-.003-4.505-.006h-.293c-5.518 0-11.013.33-16.522.563-5.534.234-10.916.619-16.419.619-.496 0-.994-.003-1.492-.01-5.498-.073-13.87-1.63-17.792-5.595-2.328-2.356-2.013-8.024.32-10.296 1.018-.992 2.66-1.77 4.003-2.242 3.822-1.348 7.71-1.35 11.705-1.379h.145c2.757 0 5.622.54 8.264 1.289 2.403.682 4.858.921 7.302 1.346 2 .347 4.14.513 6.255.513 1.377 0 2.745-.07 4.057-.207 3.548-.37 7.122-.542 10.68-.834a82.127 82.127 0 0 0 2.346-.229l-.412 3.65 2.838.96 1.88-5.154c1.027-.138 2.053-.278 3.08-.409l.001 9.311 66.844-.007-.001-8.913 2.957.09-.026-1.713c1.532.06 3.057.122 4.575.446 2.366.504 4.756.965 7.18 1.054 2.077.077 4.158.103 6.243.103 3.704 0 7.415-.08 11.107-.093.37-.002.885-.004 1.523-.004 8.267 0 37.064.369 34.998 7.833-.793 2.869-5.408 6.602-7.996 7.804-3.27 1.518-6.847 2.416-10.446 2.718-3.034.256-5.992.53-8.988.53"/>
        <path fill="#FFF" d="M76.573 28.015L10.266 47.722 1.952 19.707 68.26 0l8.314 28.015"/>
        <path fill="#5DA3DC" d="M20.796 36.443l-8.432-12.325 3.384-1.003 3.376 5.268c.947 1.479 1.836 2.909 2.665 4.51l.061-.018a62.197 62.197 0 0 1-.196-5.176l.01-6.336 3.282-.973-.544 14.984-3.606 1.069M30.75 26.176c.795 2.664 2.613 4.17 4.683 3.558 2.09-.617 2.697-2.949 1.907-5.592-.729-2.442-2.532-4.193-4.663-3.564-2.09.618-2.717 2.955-1.928 5.598zm9.827-3.1c1.332 4.46-.58 7.967-4.577 9.147-4.058 1.2-7.342-1.147-8.5-5.021-1.217-4.077.49-7.897 4.529-9.09 4.2-1.24 7.427 1.21 8.548 4.964zM43.706 17.617l-3.672 1.085-.772-2.583 10.51-3.104.77 2.583L46.81 16.7l3.29 11.017-3.104.916-3.29-11.016M61.723 17.897L56.77 19.38l.949 3.22 5.53-1.656.741 2.516-8.585 2.57-3.996-13.565 8.306-2.487.74 2.516-5.25 1.572.83 2.818 4.951-1.482.736 2.495"/>
        <path fill="#FFF" d="M119.673 54.23L78.308 41.268l5.49-17.407 41.365 12.962-5.49 17.407"/>
        <path fill="#5DA3DC" d="M87.47 38.78L87.42 29.5l2.1.657-.096 3.886c-.027 1.091-.067 2.137-.198 3.25l.038.012a38.835 38.835 0 0 1 1.708-2.737l2.22-3.263 2.037.637-5.52 7.536-2.238-.7M96.65 36.909c-.52 1.65-.11 3.055 1.166 3.456 1.29.405 2.413-.588 2.929-2.226.475-1.512.159-3.04-1.155-3.452-1.289-.405-2.425.584-2.94 2.222zm6.129 1.8c-.87 2.763-3.073 3.911-5.538 3.137-2.503-.786-3.373-3.133-2.618-5.532.795-2.525 3.003-3.906 5.493-3.124 2.59.814 3.394 3.195 2.663 5.52zM106.155 37.076l-2.25-.73.5-1.639 6.441 2.086-.5 1.64-2.288-.742-2.135 6.994-1.902-.616 2.134-6.993M115.212 43.504l-3.085-1.003-.625 2.059 3.445 1.12-.488 1.609-5.348-1.74 2.635-8.673 5.174 1.683-.489 1.609-3.271-1.064-.548 1.801 3.085 1.004-.485 1.595"/>
        <path fill="#FFF" d="M191.106 27.144l-50.73 6.262-2.632-21.505 50.73-6.261 2.632 21.504"/>
        <path fill="#5DA3DC" d="M149.053 26.464l-4.801-10.09 2.683-.32 1.88 4.285c.528 1.202 1.018 2.362 1.44 3.64l.049-.005c.113-1.295.293-2.582.51-3.826l.813-4.653 2.603-.31-2.316 10.938-2.86.341M158.144 20.308c.259 2.118 1.428 3.487 3.052 3.286 1.64-.203 2.388-1.891 2.132-3.993-.237-1.94-1.364-3.495-3.036-3.288-1.64.203-2.404 1.894-2.148 3.995zm7.738-1.105c.432 3.545-1.44 5.96-4.576 6.348-3.185.394-5.344-1.798-5.72-4.877-.395-3.24 1.364-5.917 4.533-6.31 3.296-.408 5.399 1.856 5.763 4.84zM168.548 15.686l-2.795.351-.243-2.018 8-1.004.243 2.018-2.842.357 1.037 8.608-2.363.297-1.037-8.609M181.834 17.794l-3.986.474.316 2.489 4.452-.53.247 1.944-6.911.822-1.332-10.484 6.687-.795.247 1.944-4.228.503.277 2.178 3.986-.474.245 1.929"/>
        <path fill="#E4D2B8" d="M113.883 59.564l-.133 1.445-2.52.596-1.252-1.298.205-1.676 1.349.104.087-.363.475-.238 1.789 1.43"/>
        <path fill="#F1F1F1" d="M177.983 81.148l.542 12.782-1.588 21.734-2.377.171-2.887-19.74-3.994-16.702 10.304 1.755"/>
        <path fill="#556362" d="M174.71 116.454l2.634 1.116 1.18-1.394-1.36-1.209-2.544.186.09 1.3"/>
        <path fill="#F1F1F1" d="M160.835 76.481l-.531 9.656 1.577 28.71 2.426.12 3.636-18.83 3.207-20.649-10.315.993"/>
        <path fill="#556362" d="M164.144 115.965l-2.624 1.172-1.216-1.367 1.344-1.236 2.56.13-.064 1.301"/>
        <path fill="#F8E71C" d="M174.726 48.525l-7.463-.803s-4.152.446-6.97 10.338c-1.567 5.503-2.044 14.174-2.159 20.785.177.943 1.2 5.073 5.53 4.373 7.437-1.204 11.395-2.407 14.633-1.805 2.758.601 2.525-3.209 2.222-6.116L179.42 66.3l-4.694-17.775"/>
        <path fill="#EAC1A4" d="M173.47 39.184c-1.877-.419-3.81-.793-5.69-.417-.411.082-.853.227-1.077.586-.086.14-.132.3-.174.459-.475 1.782-1.076 4.424.085 6.067.221.313.518.561.838.763.427.27.9.453 1.389.55a7.598 7.598 0 0 1-.42 1.295c.43.656 2.435.734 2.805.106l.063-1.63c.244-.1.48-.221.701-.369.857-.57 1.422-1.436 1.75-2.405.357-1.055.86-2.057 1.186-3.132.119-.392.212-.84.009-1.193-.217-.377-.686-.505-1.107-.6l-.357-.08"/>
        <path fill="#292949" d="M167.218 40.075c.928-.593 2.323-.849 3.196-.786 2.641.19 3.61 2.117 3.75 4.529.728-.919 2.093-2.074 2.176-3.256.067-.968-.067-2.287-.613-3.123-.51-.781-1.816-1.21-2.593-1.664l-2.196-1.281c-.152-.089-.309-.18-.483-.209-.205-.036-.415.017-.617.069l-5.19 1.332c-.332.085-.71.21-.833.528-.075.194-.031.41.014.613.196.892.573 1.804.666 2.707.106.525.421 3.216 1.357 2.905.275-.446.316-.996.53-1.474.158-.353.459-.65.836-.89"/>
        <path fill="#F8E71C" d="M167.245 47.722l-2.762.846-10.087 10.633-.6 3.504 4.822 8.01 1.302-2.935-2.041-5.92 3.242-2.297 4.323-9.787 1.801-2.054M173.319 49.175l5.057-5.617-1.191-15.223 2.222-1.003 3.023 15.442-.925 3.849-5.67 8.04-2.516-5.488"/>
        <path fill="#323643" d="M137.999 111.903c.271-.291.589-.45.947-.396.344.053.654.28.796.584.097.207.117.438.137.665.099 1.17.09 3.946-1.51 4.346-.673.168-1.23-.297-1.41-.885-.27-.886.13-3.34 1.04-4.314"/>
        <path fill="#EAC1A4" d="M137.744 95.01l.076 6.968c-.088 3.095.369 6.207.281 9.302-.02.711-.195 1.462-.026 2.168.166.69.696.812 1.24.462.73-.468.612-1.561.734-2.359.334-2.191.725-4.373 1.073-6.562.171-1.073-.18-2.577-.104-3.663l1.064-5.839-4.338-.476"/>
        <path fill="#292949" d="M145.553 83.655l-2.955 13.427-.628 12.68-4.687-.108-1.274-35.467 9.085.168.46 9.3"/>
        <path fill="#323643" d="M131.18 111.86c.275-.277.59-.419.934-.343.332.073.622.32.746.634.086.214.095.448.104.676.047 1.184-.08 3.979-1.648 4.289-.66.13-1.179-.37-1.327-.973-.225-.907.268-3.354 1.19-4.283"/>
        <path fill="#EAC1A4" d="M133.84 96.312l-.424 6.832c-.034 1.899-.301 3.782-.508 5.668-.193 1.752.107 3.576-.86 5.17-.302.499-.915.831-1.343.224-.33-.467-.133-1.248-.197-1.778-.258-2.166-.58-4.325-.854-6.49-.135-1.06.324-2.519.293-3.588l-.88-5.78 4.772-.258"/>
        <path fill="#292949" d="M127.715 83l-.383 13.018 2.01 13.164 4.793.146-.212-14.248 2.536-11.814.851-7.734-7.604-.912-1.99 8.38"/>
        <path fill="#FFB700" d="M133.715 48.353l8.317-.197 4.823 8.887-1.714 8.323-.306 9.961-11.864.161-3.904-.628 1.037-10.643-.594-14.218 4.205-1.646"/>
        <path fill="#FFB700" d="M132.538 54.195l-2.97 9.262-4.43 1.619-12.123-3.324 1.63-2.565 10.661.354 4.386-9.216 2.846 3.87"/>
        <path fill="#EAC1A4" d="M134.343 41.24c1.272-3.681 6.154-2.302 7.16.976.657 2.139-1.002 4.913-3.227 5.527a2.19 2.19 0 0 0-.018.23 7.147 7.147 0 0 1-.095 1.024c-.019.128-1.967-.244-2.184-.287-.076-.015-.16-.035-.202-.099-.078-.122.05-.48.064-.615l.05-.48c-1.098-.533-1.79-1.669-1.984-2.826-.194-1.162.054-2.344.436-3.45"/>
        <path fill="#292949" d="M137.688 37.836c.257.267.358.639.432.996.045.213.083.433.038.645-.178.842-.997.798-1.63 1.07-.78.334-1.454.95-1.89 1.66-.685 1.112-.377 2.542-.1 3.768.098.432.295 1.074-.033 1.46-.334.39-1.105.33-1.504.129-.365-.184-.665-.525-1.066-.593-.424-.073-.998.118-1.195-.28-.055-.11-.06-.245-.13-.346-.234-.342-.817.058-1.148-.183-.203-.148-.202-.464-.133-.715.069-.25.185-.503.137-.758-.041-.219-.196-.392-.291-.59a1.183 1.183 0 0 1 .157-1.237c.522-.617 1.534-.5 2.094-1.08.291-.303.404-.74.513-1.152.108-.413.24-.848.55-1.128.386-.345.942-.286 1.322-.696.223-.24.372-.554.622-.764.33-.276.977-.488 1.387-.63.652-.223 1.38-.08 1.868.424"/>
        <path fill="#292949" d="M140.76 43.58c.022 1.19-.578 2.477-.021 3.524.561 1.057 1.96 1.248 3.154 1.303.196.01 2.714.223 2.725.176.188-.829.383-1.674.823-2.402.44-.728 1.175-1.33 2.017-1.382-.243-.042-.366-.335-.338-.582.028-.247.158-.47.233-.707a1.649 1.649 0 0 0-.441-1.674c-.89-.818-2.506-.478-3.27-1.418-.472-.582-.416-1.427-.664-2.138-.48-1.375-2.008-1.663-3.15-2.284-1.206-.655-2.34-1.015-3.732-.786-1.725.283-3.008 2.013-2.342 3.642.853 2.088 4.264 1.908 4.903 4.028.068.228.098.462.103.7"/>
        <path fill="#E3E3E4" d="M139.48 47.878l-2.503 3.749-1.177-.102-1.96-3.803 5.64.156"/>
        <path fill="#FFEE4F" d="M45.77 51.193l8.894 6.459 7.755-3.335 1.138 2.082-5.873 3.981-3.293 1.225-8.62-4.13v-6.282"/>
        <path fill="#292949" d="M56.802 113.83l-.186 1.465 2.706 1.842 1.632-1.277-1.26-1.654-2.706-1.842-.186 1.466"/>
        <path fill="#292949" d="M56.62 113.576l2.155-18.732-2.593-20.97.583-4.46 11.58-.434.419 7.261-1.945 18.632-7.313 19.66-2.886-.957"/>
        <path fill="#292949" d="M76.542 70.8l.03 18.93-3.85 24.37-2.773-.028-1.524-22.535L64.86 68.98l11.683 1.82"/>
        <path fill="#292949" d="M70.065 115.17l2.878 1.533 1.46-1.488-1.431-1.52-2.893-.03-.014 1.504"/>
        <path fill="#D67086" d="M55.333 77.433c.025-.816.07-1.497.077-1.74.058-2.19.253-4.375.526-6.55.244-1.948.553-6.785.885-8.721.275-1.6 1.23-5.59 1.92-7.073 1.717-3.687 1.186-4.028 8.728-5.123 3.305-.48 4.086 1.588 6.788 3.966.266.235.252 1.632.313 2.002.11.65.226 1.301.36 1.948.105.509.22 1.016.35 1.52 0 0 2.269 10.364 3.769 12.566 1.5 2.2 4.6 5.278-.585 7.157-.919.299-1.843.583-2.8.734 0 0-4.239-.473-6.42-.457-2.007.015-4.023.22-5.998.561-1.32.222-2.667.544-3.848 1.163-1.126.591-1.94 1.46-3.083 2.072-.108.058-.226.118-.35.1-.656-.09-.687-2.407-.632-4.125"/>
        <path fill="#EAC1A4" d="M67.147 48.873c-.378.186-1.272.253-2.204-.11a.485.485 0 0 1-.312-.455c.008-.564.054-1.127.137-1.685-.7-.245-1.507-.612-1.629-1.34-.038-.23.002-.464.041-.692l.493-2.84c.057-.328.117-.666.296-.946.314-.492.923-.708 1.5-.808 1.472-.254 3.076.063 4.218 1.024.304.255.578.563.712.936.207.575.052 1.209-.103 1.8l-.431 1.635c-.166.627-.405 1.34-1.011 1.575-.322.125-.703.088-.994.273-.514.326-.445 1.087-.713 1.633"/>
        <path fill="#292949" d="M75.945 39.4c.147-.242.305-.475.482-.693.384-.474.857-.88 1.166-1.405.309-.525.417-1.238.047-1.722-.24-.312-.628-.468-1.005-.579a7.294 7.294 0 0 0-3.84-.07c-1.195.304-2.265.808-3.469.358-1.13-.422-1.948-.25-3.13.172-1.279.456-2.996.564-4.154 1.209-.483.27-.87.69-1.17 1.155-1.042 1.61-1.048 3.83-.014 5.445.232.363.51.694.8 1.01.604.655 1.326 1.464 2.156 1.707.02-.743-.656-3.086-.086-3.695.905-.967 2.951-.63 4.074-.392 1.225.26 2.317 1.128 3.53 1.313.874.134 1.99-.295 2.733-.747.916-.558 1.343-2.185 1.88-3.066"/>
        <path fill="#D67086" d="M60.954 49.458l-4.716 4.192-5.262 11.215 6.646 8.02 1.143-4.485 2.19-18.942"/>
        <path fill="#4A4A4A" d="M41.866 83.661l-9.979-3.4 2.531 17.507-.752 15.19-.029.103.024.002-.002.033 1.953.132v-.002l.073.006 3.969-13.63 1.896-14.45.316-1.491"/>
        <path fill="#292949" d="M35.257 113.666l-2.032.007-.47 1.787.052.015-.013.001 3.415 1.958 1.601.136.151-1.892-.44-.314-2.264-1.698"/>
        <path fill="#4A4A4A" d="M49.675 83.527l-2.128 30.425-1.964.148-2.437-16.324-3.884-16.214 10.413 1.965"/>
        <path fill="#292949" d="M47.522 114.534l2.586 1.383-.204 1.22-4.568-.56.218-1.756 1.968-.287"/>
        <path fill="#FFEE4F" d="M28.857 88.541c-.21-5.14 4.335-21.484 4.335-21.484.48-1.536.847-3.098 1.067-4.664.156-1.115 3.465-13.787 3.245-13.803 2.28.168 6.674-.376 8.362 1.259.048.046.094.095.138.145 1.316 1.516 2 4.584 2.622 6.473a51.098 51.098 0 0 1 1.874 7.604c.375 2.255.598 4.533.756 6.813.135 1.96.027 3.909.094 5.837.073 2.134.707 4.448 1.18 6.525.476 2.09 1.08 4.157 1.917 6.132-2.263 1.011-4.783 1.284-7.258 1.294-2.474.01-4.945-.232-7.42-.193-2.092.033-4.21.263-6.26-.16-1.63-.338-3.135-1.07-4.652-1.778"/>
        <path fill="#292949" d="M45.336 43.482c1.093.517 2.232 1.85 2.161 3.092-.034.598-.379 1.062-.388 1.703-.025 1.264-2.024 2.587-.8 3.806.629.627 1.612.75 2.515.836.11.01.224.02.325-.02.167-.068.249-.258.245-.431-.004-.174-.074-.338-.129-.504-.574-1.73.293-3.747.395-5.51.103-1.76-.332-3.659-1.837-4.805-1.01.295-1.761.703-2.258 1.595l-.229.238"/>
        <path fill="#EAC1A4" d="M44.567 51.165c1.157-.152 2.14-1.05 2.678-2.136.54-1.086.689-2.341.694-3.566.019-4.077-4.781-4.352-6.711-1.442-1.682 2.537-.024 7.59 3.34 7.144"/>
        <path fill="#292949" d="M38.744 51.34c.606-.174 1.207-.367 1.677-.885.758-.839.985-2.417 1.342-3.46.377-1.102.822-2.29 1.81-2.888.646-.39 1.296-.36 2.004-.231.484.088.467.276.926.095.351-.139.735-.686.875-1.023.237-.567.123-1.238-.174-1.776-.457-.828-1.094-1.32-1.986-1.519-3.132-.694-5.86.724-7.35 3.66-.716 1.41-.723 3.137-1.456 4.486-.453.832-1.13 1.313-1.542 2.213-1.067 2.338-3.016 5.211-3.406 7.77-.014.094-.023.2.034.277.117.155.36.042.51-.078l2.654-2.113c.347-.276.7-.558.958-.92.644-.904.66-2.234 1.524-2.923.472-.376 1.038-.523 1.6-.684"/>
        <path fill="#D9CAAF" d="M23.699 46.402c-.586.114-2.112-.31-2.462-.871-.81-1.294 1.11-.896 1.804-.913-.08-.25-.164-.49-.194-.747-.029-.236 2.031.376 2.23.6.476.54.259.946.216 1.628-.532.088-1.063.2-1.594.303"/>
        <path fill="#FFEE4F" d="M40.533 59.436L28.97 57.532l-5.325-10.687 2.117-1.726 5.635 7.4 5.888-.247 5.45.233-2.2 6.931"/>
        <path fill="#AA6755" d="M178.959 27.405v-1.404l-1.546-2.14-1.057.988.692 1.901-.438.655.62.795 1.729-.795"/>
        <path fill="#D9CAAF" d="M90.47 45.766l1.72-2.075-.895-.74-1.509 1.17-.253-.538-1.247 1.947.823.89 1.36-.654"/>
        <path fill="#D67086" d="M68.33 48.874l13.267.803 6.794-4.124 1.197 1.159-5.02 7.207-9.612 2.046-6.626-7.09"/>
        <path fill="#FFEE4F" d="M131.236 117.997l-66.804.007-.007-56.391 66.805-.008.006 56.392"/>
        <path fill="#F8E71C" d="M132.538 75.914l-68.979.008-.002-14.309 68.98-.008.001 14.309"/>
        <g transform="translate(131.236 75.922)">
            <mask id="b" fill="#fff">
                <use xlink:href="#a"/>
            </mask>
            <path fill="#252542" d="M.244 2.051h.003V.021H.243z" mask="url(#b)"/>
        </g>
        <path fill="#252542" d="M64.427 78.148h-.004v-.113l.004-.001v.114"/>
        <path fill="#C06578" d="M64.424 78.091v-2.17h.003v2.17h-.003"/>
        <path fill="#FFB700" d="M131.236 78.091h-66.81v-2.17h66.81l-.001 2.17"/>
        <path fill="#FFF" d="M111.714 86.769l-4.774-4.773-8.892 8.892-8.893-8.892-4.773 4.773 8.892 8.893-8.892 8.892 4.773 4.774 8.893-8.893 8.892 8.893 4.774-4.774-8.893-8.892 8.893-8.893"/>
        <path fill="#D9CAAF" d="M63.567 74.583l2.396 1.339.631-.973-1.432-1.27.518-.326-2.193-.902-.797.925.877 1.207"/>
        <path fill="#FFF" d="M152.06 77.986l-30.548 5.745-2.423-12.91 30.549-5.745 2.423 12.91"/>
        <path fill="#5DA3DC" d="M126.539 79.393l-3.112-5.862 1.517-.29 1.23 2.494c.346.7.668 1.377.957 2.126l.027-.005c.016-.78.07-1.556.148-2.308l.29-2.815 1.471-.282-.912 6.632-1.616.31M131.478 75.134c.228 1.208.957 1.952 1.892 1.777.944-.177 1.316-1.175 1.09-2.374-.208-1.106-.919-1.958-1.882-1.778-.944.177-1.325 1.177-1.1 2.375zm4.45-.919c.38 2.022-.617 3.478-2.423 3.817-1.834.343-3.167-.837-3.498-2.594-.347-1.847.575-3.45 2.4-3.793 1.898-.355 3.2.868 3.521 2.57zM137.544 71.65l-1.738.32-.231-1.205 4.975-.917.23 1.205-1.766.326.985 5.14-1.47.27-.985-5.14M145.65 73.03l-2.32.43.28 1.477 2.591-.48.22 1.153-4.022.746-1.184-6.22 3.89-.722.22 1.154-2.46.456.246 1.292 2.32-.43.218 1.144"/>
        <path fill="#E4D2B8" d="M146.49 75.488l1.439.097.661 2.518-1.255 1.29-1.67-.164.066-1.358-.362-.078-.25-.472 1.37-1.833"/>
        <path fill="#FFB700" d="M141.215 47.722l3.934 1.84 6.912 12.318-2.83 13.608-3-.093.79-11.974-4.484-6.892-1.322-8.807"/>
    </g>
</svg>
